<?xml version="1.0" encoding="UTF-8"?><svg xmlns="http://www.w3.org/2000/svg" viewBox="0 0 1016.99 218.88"><defs><style>.c{fill:#fff;}</style></defs><g id="a"><g><path class="c" d="M324.11,165.36c-8.87,0-17.37-1.1-25.47-3.29s-14.66-4.97-19.66-8.34l9.95-22.49c4.79,3.06,10.33,5.58,16.6,7.57,6.27,1.99,12.52,2.98,18.74,2.98,4.28,0,7.67-.36,10.17-1.07,2.5-.71,4.33-1.73,5.51-3.06,1.17-1.33,1.76-2.91,1.76-4.74,0-2.35-1.12-4.21-3.37-5.58-2.25-1.38-5.18-2.55-8.8-3.52-3.62-.97-7.55-1.89-11.78-2.75-4.23-.87-8.54-2.01-12.93-3.44-4.39-1.43-8.36-3.31-11.93-5.66-3.57-2.35-6.45-5.41-8.64-9.18-2.19-3.77-3.29-8.52-3.29-14.23,0-6.32,1.73-12.09,5.2-17.29,3.47-5.2,8.72-9.38,15.76-12.55,7.04-3.16,15.81-4.74,26.32-4.74,7.04,0,13.95,.79,20.73,2.37,6.78,1.58,12.78,3.95,17.98,7.11l-9.18,22.34c-5.1-2.85-10.15-4.95-15.15-6.27-5-1.32-9.84-1.99-14.53-1.99-4.18,0-7.55,.46-10.1,1.38-2.55,.92-4.39,2.09-5.51,3.52-1.12,1.43-1.68,2.96-1.68,4.59,0,2.45,1.12,4.36,3.37,5.74,2.24,1.38,5.15,2.5,8.72,3.37,3.57,.87,7.52,1.76,11.86,2.68,4.33,.92,8.64,2.07,12.93,3.44,4.28,1.38,8.24,3.21,11.86,5.51,3.62,2.29,6.55,5.3,8.8,9.03,2.24,3.72,3.37,8.39,3.37,14,0,6.22-1.76,11.96-5.28,17.21-3.52,5.25-8.8,9.46-15.84,12.62-7.04,3.16-15.86,4.74-26.47,4.74Z"/><path class="c" d="M372.6,163.22l47.28-107.1h29.83l47.43,107.1h-31.52l-37.03-92.26h11.93l-37.03,92.26h-30.91Zm25.86-20.96l7.8-22.19h52.33l7.8,22.19h-67.93Z"/><path class="c" d="M505.87,163.22V56.12h24.94l44.22,72.83h-13.16l43.3-72.83h24.94l.15,107.1h-27.85l-.31-64.72h4.74l-32.28,54.16h-13.46l-33.2-54.16h5.81v64.72h-27.85Z"/><path class="c" d="M638.82,163.22l47.28-107.1h29.83l47.43,107.1h-31.52l-37.03-92.26h11.93l-37.03,92.26h-30.91Zm25.86-20.96l7.8-22.19h52.33l7.8,22.19h-67.93Z"/><path class="c" d="M772.09,163.22V56.12h48.81c9.79,0,18.26,1.58,25.4,4.74,7.14,3.16,12.62,7.73,16.45,13.69,3.83,5.97,5.74,12.98,5.74,21.04s-1.91,15.3-5.74,21.11c-3.83,5.81-9.31,10.28-16.45,13.39-7.14,3.11-15.61,4.67-25.4,4.67h-32.13l13.62-12.85v41.31h-30.29Zm30.29-37.79l-13.62-14.08h30.29c6.32,0,11.07-1.38,14.23-4.13,3.16-2.75,4.74-6.63,4.74-11.63s-1.58-8.59-4.74-11.4c-3.16-2.8-7.91-4.21-14.23-4.21h-30.29l13.62-13.92v59.36Zm35.8,37.79l-26.62-39.02h32.28l26.77,39.02h-32.44Z"/><path class="c" d="M872.3,163.22l47.28-107.1h29.83l47.43,107.1h-31.52l-37.03-92.26h11.93l-37.03,92.26h-30.91Zm25.86-20.96l7.8-22.19h52.33l7.8,22.19h-67.93Z"/></g><path class="c" d="M270.81,15.59l-53.71,53.71H89.53c-1.88,0-3.47,.65-4.77,1.95-1.3,1.3-1.95,2.89-1.95,4.77s.65,3.47,1.95,4.77c1.3,1.3,2.89,1.95,4.77,1.95h93.99c16.65,0,30.88,5.91,42.7,17.72s17.72,26.05,17.72,42.7-5.91,30.88-17.72,42.7-26.05,17.72-42.7,17.72H2.25l53.71-53.71h127.56c1.88,0,3.47-.65,4.77-1.95,1.3-1.3,1.95-2.89,1.95-4.77s-.65-3.47-1.95-4.77c-1.3-1.3-2.89-1.95-4.77-1.95H89.53c-16.65,0-30.88-5.91-42.7-17.72s-17.72-26.05-17.72-42.7,5.91-30.88,17.72-42.7,26.05-17.72,42.7-17.72h181.27Z"/></g><g id="b"/></svg>