<svg id="a" xmlns="http://www.w3.org/2000/svg" viewBox="0 0 235 218.88"><defs><style>.b,.c{fill:#0062af;}.d,.e{fill:#8ed8f8;}.e,.f,.c{fill-rule:evenodd;}.f{fill:#00aeef;}</style></defs><circle class="b" cx="17.54" cy="108.31" r="17.54" transform="translate(-91.95 101.25) rotate(-77.11)"/><circle class="b" cx="24.79" cy="148.4" r="15.76" transform="translate(-97.67 60.99) rotate(-45)"/><circle class="b" cx="46.9" cy="178.72" r="12.8" transform="translate(-11.95 3.57) rotate(-3.87)"/><circle class="b" cx="77.96" cy="198.83" r="11.85"/><path class="c" d="M117.28,218.88c5.97,0,10.83-4.87,10.83-10.83s-4.87-10.83-10.83-10.83-10.83,4.87-10.83,10.83,4.87,10.83,10.83,10.83Z"/><circle class="b" cx="153.82" cy="201.61" r="9.07" transform="translate(-30.31 27.24) rotate(-9.22)"/><circle class="b" cx="187.42" cy="178.2" r="7.9"/><path class="c" d="M208.26,154.18c3.48,0,6.32-2.84,6.32-6.32s-2.84-6.32-6.32-6.32-6.32,2.84-6.32,6.32,2.84,6.32,6.32,6.32Z"/><circle class="d" cx="217.46" cy="110.57" r="17.54" transform="translate(81.15 312.89) rotate(-82.98)"/><path class="e" d="M210.21,86.25c-8.7,0-15.76-7.06-15.76-15.76s7.06-15.76,15.76-15.76,15.76,7.06,15.76,15.76-7.06,15.76-15.76,15.76Z"/><circle class="d" cx="188.1" cy="40.17" r="12.8"/><path class="e" d="M157.04,31.9c-6.54,0-11.85-5.3-11.85-11.85s5.3-11.85,11.85-11.85,11.85,5.3,11.85,11.85-5.3,11.85-11.85,11.85Z"/><path class="e" d="M117.72,21.67c-5.98,0-10.83-4.85-10.83-10.83S111.74,0,117.72,0s10.83,4.85,10.83,10.83-4.85,10.83-10.83,10.83Z"/><path class="e" d="M81.18,26.34c-5.01,0-9.07-4.06-9.07-9.07s4.06-9.07,9.07-9.07,9.07,4.06,9.07,9.07-4.06,9.07-9.07,9.07Z"/><circle class="d" cx="47.58" cy="40.68" r="7.9"/><path class="e" d="M26.74,77.34c-3.49,0-6.32-2.83-6.32-6.32s2.83-6.32,6.32-6.32,6.32,2.83,6.32,6.32-2.83,6.32-6.32,6.32Z"/><path class="c" d="M61.28,146.92c4.61-4.49,11.99-4.4,16.48,.21,4.49,4.61,4.4,11.99-.21,16.48-4.61,4.49-11.99,4.4-16.48-.21-4.49-4.61-4.4-11.99,.21-16.48Z"/><path class="c" d="M84.15,163.48c4.14-4.04,10.77-3.95,14.81,.19,4.04,4.14,3.95,10.77-.19,14.81-4.14,4.04-10.77,3.95-14.81-.19-4.04-4.14-3.95-10.77,.19-14.81Z"/><path class="c" d="M110.11,169.06c3.36-3.28,8.75-3.21,12.03,.15,3.28,3.36,3.21,8.75-.15,12.03-3.36,3.28-8.75,3.21-12.03-.15s-3.21-8.75,.15-12.03Z"/><path class="c" d="M134.65,164.67c3.11-3.03,8.1-2.97,11.13,.14,3.03,3.11,2.97,8.1-.14,11.13-3.11,3.03-8.1,2.97-11.13-.14-3.03-3.11-2.97-8.1,.14-11.13Z"/><path class="c" d="M158.11,151.3c2.85-2.77,7.41-2.72,10.18,.13,2.78,2.85,2.72,7.41-.13,10.18-2.85,2.77-7.41,2.72-10.18-.13-2.78-2.85-2.72-7.41,.13-10.18Z"/><path class="c" d="M173.32,132.13c2.38-2.32,6.2-2.27,8.52,.11,2.32,2.38,2.27,6.2-.11,8.52-2.38,2.32-6.2,2.27-8.52-.11-2.32-2.38-2.27-6.2,.11-8.52Z"/><path class="c" d="M179,105.97c2.07-2.02,5.4-1.98,7.42,.09,2.02,2.07,1.98,5.4-.09,7.42-2.07,2.02-5.4,1.98-7.42-.09-2.02-2.07-1.98-5.4,.09-7.42Z"/><path class="c" d="M175.57,82.62c1.66-1.62,4.32-1.59,5.94,.08,1.62,1.66,1.58,4.32-.08,5.94-1.66,1.62-4.32,1.59-5.94-.08-1.62-1.66-1.59-4.32,.08-5.94Z"/><path class="f" d="M173.72,71.96c-4.61,4.49-11.99,4.4-16.48-.21-4.49-4.61-4.4-11.99,.21-16.48,4.61-4.49,11.99-4.4,16.48,.21,4.49,4.61,4.4,11.99-.21,16.48Z"/><path class="f" d="M150.85,55.41c-4.14,4.04-10.77,3.95-14.81-.19-4.04-4.14-3.95-10.77,.19-14.81,4.14-4.04,10.77-3.95,14.81,.19,4.04,4.14,3.95,10.77-.19,14.81Z"/><path class="f" d="M124.89,49.83c-3.36,3.28-8.75,3.21-12.03-.15-3.28-3.36-3.21-8.75,.15-12.03,3.36-3.28,8.75-3.21,12.03,.15,3.28,3.36,3.21,8.75-.15,12.03Z"/><path class="f" d="M100.35,54.21c-3.11,3.03-8.1,2.97-11.13-.14-3.03-3.11-2.97-8.1,.14-11.13,3.11-3.03,8.1-2.97,11.13,.14,3.03,3.11,2.97,8.1-.14,11.13Z"/><path class="f" d="M76.89,67.58c-2.85,2.77-7.41,2.72-10.18-.13-2.77-2.85-2.72-7.41,.13-10.18,2.85-2.77,7.41-2.72,10.18,.13,2.77,2.85,2.72,7.41-.13,10.18Z"/><path class="f" d="M61.68,86.75c-2.38,2.32-6.2,2.27-8.52-.11-2.32-2.38-2.27-6.2,.11-8.52,2.38-2.32,6.2-2.27,8.52,.11,2.32,2.38,2.27,6.2-.11,8.52Z"/><path class="f" d="M56,112.91c-2.07,2.02-5.4,1.98-7.42-.09-2.02-2.07-1.98-5.4,.09-7.42,2.07-2.02,5.4-1.98,7.42,.09,2.02,2.07,1.98,5.4-.09,7.42Z"/><path class="f" d="M59.43,136.27c-1.66,1.62-4.32,1.59-5.94-.08-1.62-1.66-1.58-4.32,.08-5.94,1.66-1.62,4.32-1.58,5.94,.08,1.62,1.66,1.59,4.32-.08,5.94Z"/><path class="c" d="M108.44,145.32c.22-3.52,3.25-6.19,6.77-5.97,3.52,.22,6.19,3.25,5.97,6.77-.22,3.52-3.25,6.19-6.77,5.97-3.52-.22-6.19-3.25-5.97-6.77Z"/><path class="c" d="M123.81,143.64c.2-3.16,2.92-5.56,6.08-5.37,3.16,.2,5.56,2.92,5.37,6.08-.2,3.16-2.92,5.56-6.08,5.37-3.16-.2-5.56-2.92-5.37-6.08Z"/><path class="c" d="M136.4,136.37c.16-2.57,2.37-4.52,4.94-4.36,2.57,.16,4.52,2.37,4.36,4.94-.16,2.57-2.37,4.52-4.94,4.36-2.57-.16-4.52-2.37-4.36-4.94Z"/><path class="c" d="M144.76,125.57c.15-2.38,2.2-4.18,4.57-4.03,2.38,.15,4.18,2.2,4.03,4.57-.15,2.38-2.2,4.18-4.57,4.03-2.38-.15-4.18-2.2-4.03-4.57Z"/><path class="c" d="M149.37,111.52c.14-2.17,2.01-3.82,4.18-3.69,2.17,.14,3.82,2.01,3.69,4.18-.14,2.17-2.01,3.82-4.18,3.69-2.17-.14-3.82-2.01-3.69-4.18Z"/><path class="c" d="M148.5,98.14c.11-1.82,1.68-3.2,3.5-3.09,1.82,.11,3.2,1.68,3.09,3.5-.11,1.82-1.68,3.2-3.5,3.09-1.82-.11-3.2-1.68-3.09-3.5Z"/><path class="c" d="M141.19,85.44c.1-1.58,1.46-2.79,3.05-2.69,1.58,.1,2.79,1.46,2.69,3.05-.1,1.58-1.46,2.79-3.05,2.69s-2.79-1.46-2.69-3.05Z"/><path class="c" d="M131.22,77.21c.08-1.27,1.17-2.23,2.44-2.15,1.27,.08,2.23,1.17,2.15,2.44-.08,1.27-1.17,2.23-2.44,2.15-1.27-.08-2.23-1.17-2.15-2.44Z"/><path class="f" d="M126.56,73.57c-.22,3.52-3.25,6.19-6.77,5.97-3.52-.22-6.19-3.25-5.97-6.77,.22-3.52,3.25-6.19,6.77-5.97,3.52,.22,6.19,3.25,5.97,6.77Z"/><path class="f" d="M111.19,75.25c-.2,3.16-2.92,5.56-6.08,5.37-3.16-.2-5.56-2.92-5.37-6.08,.2-3.16,2.92-5.56,6.08-5.37,3.16,.2,5.56,2.92,5.37,6.08Z"/><path class="f" d="M98.6,82.52c-.16,2.57-2.37,4.52-4.94,4.36-2.57-.16-4.52-2.37-4.36-4.94,.16-2.57,2.37-4.52,4.94-4.36,2.57,.16,4.52,2.37,4.36,4.94Z"/><path class="f" d="M90.24,93.32c-.15,2.38-2.2,4.18-4.57,4.03-2.38-.15-4.18-2.2-4.03-4.57,.15-2.38,2.2-4.18,4.57-4.03,2.38,.15,4.18,2.2,4.03,4.57Z"/><path class="f" d="M85.63,107.36c-.14,2.17-2.01,3.82-4.18,3.69-2.17-.14-3.82-2.01-3.69-4.18,.14-2.17,2.01-3.82,4.18-3.69,2.17,.14,3.82,2.01,3.69,4.18Z"/><path class="f" d="M86.5,120.74c-.11,1.82-1.68,3.2-3.5,3.09-1.82-.11-3.2-1.68-3.09-3.5,.11-1.82,1.68-3.2,3.5-3.09,1.82,.11,3.2,1.68,3.09,3.5Z"/><path class="f" d="M93.81,133.45c-.1,1.58-1.46,2.79-3.05,2.69-1.58-.1-2.79-1.46-2.69-3.05,.1-1.58,1.46-2.79,3.05-2.69,1.58,.1,2.79,1.46,2.69,3.05Z"/><path class="f" d="M103.78,141.67c-.08,1.27-1.17,2.23-2.44,2.15-1.27-.08-2.23-1.17-2.15-2.44,.08-1.27,1.17-2.23,2.44-2.15,1.27,.08,2.23,1.17,2.15,2.44Z"/></svg>